<svg width="24" height="24" viewBox="0 0 24 24" fill="none" xmlns="http://www.w3.org/2000/svg">
<path d="M19.47 11.83C18.8819 10.3088 17.861 8.99331 16.5334 8.04604C15.2058 7.09878 13.6297 6.56129 12 6.5C10.3703 6.56129 8.79419 7.09878 7.4666 8.04604C6.13901 8.99331 5.11808 10.3088 4.53 11.83C4.49028 11.9399 4.49028 12.0601 4.53 12.17C5.11808 13.6912 6.13901 15.0067 7.4666 15.954C8.79419 16.9012 10.3703 17.4387 12 17.5C13.6297 17.4387 15.2058 16.9012 16.5334 15.954C17.861 15.0067 18.8819 13.6912 19.47 12.17C19.5097 12.0601 19.5097 11.9399 19.47 11.83ZM12 16.5C9.35 16.5 6.55 14.535 5.535 12C6.55 9.465 9.35 7.5 12 7.5C14.65 7.5 17.45 9.465 18.465 12C17.45 14.535 14.65 16.5 12 16.5Z" fill="#5BA5FC"/>
<path d="M8.5 11C7.95 11 7.5 11.45 7.5 12C7.5 12.55 7.95 13 8.5 13C9.05 13 9.5 12.55 9.5 12C9.5 11.45 9.05 11 8.5 11ZM15.5 11C14.95 11 14.5 11.45 14.5 12C14.5 12.55 14.95 13 15.5 13C16.05 13 16.5 12.55 16.5 12C16.5 11.45 16.05 11 15.5 11ZM12 11C11.45 11 11 11.45 11 12C11 12.55 11.45 13 12 13C12.55 13 13 12.55 13 12C13 11.45 12.55 11 12 11Z" fill="#5BA5FC"/>
</svg>
