<svg width="232" height="68" viewBox="0 0 232 68" fill="none" xmlns="http://www.w3.org/2000/svg">
<path d="M64.6 16.2C63 9.90001 58.1 5.00001 51.8 3.40001C40 1.50001 28 1.50001 16.2 3.40001C9.9 5.00001 5 9.90001 3.4 16.2C1.5 28 1.5 40 3.4 51.8C5 58.1 9.9 63 16.2 64.6C28 66.5 40 66.5 51.8 64.6C58.1 63 63 58.1 64.6 51.8C66.5 40 66.5 28 64.6 16.2ZM33.3 36.3C30.5 40.7 26.7 44.5 22.2 47.3C20.7 48.2 18.9 48.2 17.4 47.4C15.9 46.6 15 45.1 14.9 43.4C14.9 41.7 15.8 40.1 17.3 39.3C19.6 37.9 21.7 36.1 23.4 34C21.6 31.9 19.6 30.2 17.3 28.7C15 27.4 14.3 24.5 15.6 22.3C16.9 20.1 19.9 19.4 22.1 20.7C26.6 23.5 30.3 27.2 33.2 31.6C34.2 33 34.2 34.9 33.3 36.3ZM49.2 46H37.8C35.7 46 34 45 34 43C34 41 35.7 40 37.8 40H49.2C51.3 40 53 41 53 43C53 45 51.3 46 49.2 46Z" fill="#206BC4"/>
<path d="M89.1013 47.96C85.36 47.96 82.4313 46.902 80.3153 44.786C78.23 42.6393 77.1873 39.634 77.1873 35.77C77.1873 33.5927 77.586 31.584 78.3833 29.744C79.1807 27.904 80.4073 26.4167 82.0633 25.282C83.7193 24.1473 85.7587 23.58 88.1813 23.58C90.4507 23.58 92.4133 24.1167 94.0693 25.19C95.7253 26.2327 96.9827 27.6433 97.8413 29.422C98.7 31.17 99.1293 33.0867 99.1293 35.172C99.1293 35.7547 98.93 36.2453 98.5313 36.644C98.1633 37.0427 97.6573 37.242 97.0133 37.242H81.4193C81.6647 39.3887 82.462 41.06 83.8113 42.256C85.1607 43.452 87.0467 44.05 89.4693 44.05C90.7573 44.05 91.8767 43.9273 92.8273 43.682C93.8087 43.4367 94.7593 43.084 95.6793 42.624C95.9247 42.5013 96.2007 42.44 96.5073 42.44C96.998 42.44 97.4273 42.6087 97.7953 42.946C98.1633 43.2833 98.3473 43.7127 98.3473 44.234C98.3473 44.9087 97.9487 45.476 97.1513 45.936C95.9553 46.6107 94.7747 47.1167 93.6093 47.454C92.444 47.7913 90.9413 47.96 89.1013 47.96ZM94.9893 33.838C94.8973 32.3353 94.4987 31.078 93.7933 30.066C93.1187 29.054 92.2753 28.318 91.2633 27.858C90.2513 27.3673 89.224 27.122 88.1813 27.122C87.1387 27.122 86.1113 27.3673 85.0993 27.858C84.0873 28.318 83.244 29.054 82.5693 30.066C81.8947 31.078 81.5113 32.3353 81.4193 33.838H94.9893ZM112.769 47.73C112.217 47.73 111.711 47.5767 111.251 47.27C110.791 46.9327 110.454 46.5187 110.239 46.028L102.235 26.892C102.082 26.524 102.005 26.202 102.005 25.926C102.005 25.3433 102.205 24.8527 102.603 24.454C103.002 24.0247 103.493 23.81 104.075 23.81C104.474 23.81 104.842 23.9327 105.179 24.178C105.547 24.3927 105.808 24.6687 105.961 25.006L112.999 42.854L120.037 25.006C120.191 24.6687 120.436 24.3927 120.773 24.178C121.141 23.9327 121.525 23.81 121.923 23.81C122.506 23.81 122.997 24.0247 123.395 24.454C123.794 24.8527 123.993 25.3433 123.993 25.926C123.993 26.202 123.917 26.524 123.763 26.892L115.759 46.028C115.545 46.5187 115.207 46.9327 114.747 47.27C114.287 47.5767 113.781 47.73 113.229 47.73H112.769ZM134.546 47.96C133.197 47.96 131.94 47.684 130.774 47.132C129.64 46.58 128.735 45.7827 128.06 44.74C127.386 43.6667 127.048 42.44 127.048 41.06C127.048 38.7907 127.938 36.9813 129.716 35.632C131.526 34.2827 134.163 33.608 137.628 33.608H143.194V33.24C143.194 31.216 142.688 29.7593 141.676 28.87C140.695 27.9807 139.146 27.536 137.03 27.536C135.865 27.536 134.822 27.628 133.902 27.812C133.013 27.996 132.016 28.272 130.912 28.64C130.667 28.7013 130.468 28.732 130.314 28.732C129.854 28.732 129.456 28.5633 129.118 28.226C128.781 27.8887 128.612 27.4747 128.612 26.984C128.612 26.156 129.011 25.5733 129.808 25.236C132.415 24.132 135.068 23.58 137.766 23.58C139.882 23.58 141.661 24.0093 143.102 24.868C144.574 25.7267 145.648 26.846 146.322 28.226C147.028 29.5753 147.38 31.0473 147.38 32.642V45.66C147.38 46.2427 147.166 46.7333 146.736 47.132C146.338 47.5307 145.847 47.73 145.264 47.73C144.682 47.73 144.191 47.5307 143.792 47.132C143.394 46.7333 143.194 46.2427 143.194 45.66V44.464C140.925 46.7947 138.042 47.96 134.546 47.96ZM136.11 44.28C137.46 44.28 138.763 43.958 140.02 43.314C141.278 42.6393 142.336 41.8113 143.194 40.83V36.966H138.18C133.55 36.966 131.234 38.1773 131.234 40.6C131.234 41.704 131.602 42.5933 132.338 43.268C133.105 43.9427 134.362 44.28 136.11 44.28Z" fill="#4A4A4A"/>
</svg>
